<svg xmlns="http://www.w3.org/2000/svg" viewBox="0 0 9.79 9.79">
  <polygon fill="#838383" stroke="#838383" stroke-width=".06" stroke-linejoin="round" points="7.49,8.48 6.11,8.99 4.48,9.09 2.94,8.78 1.78,8.11 1.24,7.22 1.43,6.28 2.3,5.48 3.68,4.98 5.31,4.88 6.85,5.19 8.01,5.86 8.55,6.75 8.36,7.68"/>
  <polygon fill="#303030" stroke="#303030" stroke-width=".06" stroke-linejoin="round" points="8.55,7.05 8.36,7.98 8.36,7.68 8.55,6.75"/>
  <polygon fill="#4d4d4d" stroke="#4d4d4d" stroke-width=".06" stroke-linejoin="round" points="1.78,8.41 1.24,7.52 1.24,7.22 1.78,8.11"/>
  <polygon fill="#313131" stroke="#313131" stroke-width=".06" stroke-linejoin="round" points="8.36,7.98 7.49,8.78 7.49,8.48 8.36,7.68"/>
  <polygon fill="#636363" stroke="#636363" stroke-width=".06" stroke-linejoin="round" points="2.94,9.08 1.78,8.41 1.78,8.11 2.94,8.78"/>
  <polygon fill="#505050" stroke="#505050" stroke-width=".06" stroke-linejoin="round" points="7.49,8.78 6.11,9.29 6.11,8.99 7.49,8.48"/>
  <polygon fill="#6c6c6c" stroke="#6c6c6c" stroke-width=".06" stroke-linejoin="round" points="4.48,9.39 2.94,9.08 2.94,8.78 4.48,9.09"/>
  <polygon fill="#656565" stroke="#656565" stroke-width=".06" stroke-linejoin="round" points="6.11,9.29 4.48,9.39 4.48,9.09 6.11,8.99"/>
  <polygon fill="#303030" stroke="#303030" stroke-width=".06" stroke-linejoin="round" points="7.37,5.94 7.96,6.98 5.31,2.88 5.31,2.88 5.44,3.05"/>
  <polygon fill="#303030" stroke="#303030" stroke-width=".06" stroke-linejoin="round" points="5.31,2.88 5.23,2.74 5.44,3.05"/>
  <polygon fill="#4c4c4c" stroke="#4c4c4c" stroke-width=".06" stroke-linejoin="round" points="1.83,6.98 2.42,5.94 4.35,3.05 4.48,2.88 4.48,2.88"/>
  <polygon fill="#4c4c4c" stroke="#4c4c4c" stroke-width=".06" stroke-linejoin="round" points="4.35,3.05 4.56,2.74 4.48,2.88"/>
  <polygon fill="#848484" stroke="#848484" stroke-width=".06" stroke-linejoin="round" points="4.39,8.67 3.95,8.67 4.49,4.99"/>
  <polygon fill="#474747" stroke="#474747" stroke-width=".06" stroke-linejoin="round" points="4.55,2.71 4.56,2.73 4.56,2.79"/>
  <polygon fill="#303030" stroke="#303030" stroke-width=".06" stroke-linejoin="round" points="5.23,2.79 5.23,2.73 5.24,2.71"/>
  <polygon fill="#454545" stroke="#454545" stroke-width=".06" stroke-linejoin="round" points="3.42,1.53 3.68,1.68 3.42,1.83 3.16,1.68"/>
  <polygon fill="#454545" stroke="#454545" stroke-width=".06" stroke-linejoin="round" points="5.04,3.03 4.9,3.11 4.9,2.74"/>
  <polygon fill="#454545" stroke="#454545" stroke-width=".06" stroke-linejoin="round" points="4.46,2.91 3.44,0.88 3.7,1.03 4.56,2.75"/>
  <polygon fill="#454545" stroke="#454545" stroke-width=".06" stroke-linejoin="round" points="3.7,0.73 3.96,0.88 3.7,1.03 3.44,0.88"/>
  <polygon fill="#454545" stroke="#454545" stroke-width=".06" stroke-linejoin="round" points="5.01,2.34 5.16,0.99 5.16,2.26"/>
  <polygon fill="#454545" stroke="#454545" stroke-width=".06" stroke-linejoin="round" points="5.16,3 4.93,3.13 5.01,2.34 5.16,2.26"/>
  <polygon fill="#454545" stroke="#454545" stroke-width=".06" stroke-linejoin="round" points="5.01,3.11 4.95,3.15 4.97,3.06"/>
  <polygon fill="#454545" stroke="#454545" stroke-width=".06" stroke-linejoin="round" points="4.9,0.4 5.16,0.55 4.9,0.7 4.64,0.55"/>
  <polygon fill="#454545" stroke="#454545" stroke-width=".06" stroke-linejoin="round" points="5.23,2.75 6.1,1.03 6.35,0.88 5.33,2.91"/>
  <polygon fill="#454545" stroke="#454545" stroke-width=".06" stroke-linejoin="round" points="5.27,3.03 5.01,3.18 5.23,2.75 5.33,2.91"/>
  <polygon fill="#4c4c4c" stroke="#4c4c4c" stroke-width=".06" stroke-linejoin="round" points="5.25,3.07 5.23,3.03 5.31,2.88 5.4,3.02"/>
  <polygon fill="#303030" stroke="#303030" stroke-width=".06" stroke-linejoin="round" points="5.31,2.88 5.25,2.99 5.31,2.69"/>
  <polygon fill="#484848" stroke="#484848" stroke-width=".06" stroke-linejoin="round" points="5.23,3.03 5.15,3.06 5.23,2.79"/>
  <polygon fill="#454545" stroke="#454545" stroke-width=".06" stroke-linejoin="round" points="5.01,3.18 4.75,3.03 5.08,2.38 5.34,2.53"/>
  <polygon fill="#303030" stroke="#303030" stroke-width=".06" stroke-linejoin="round" points="5.25,2.99 5.23,3.03 5.23,2.79 5.24,2.71 5.31,2.58 5.31,2.69"/>
  <polygon fill="#454545" stroke="#454545" stroke-width=".06" stroke-linejoin="round" points="4.9,3.11 4.87,3.13 4.81,2.57 4.9,2.74"/>
  <polygon fill="#454545" stroke="#454545" stroke-width=".06" stroke-linejoin="round" points="4.93,3.13 4.9,3.15 4.9,2.41 5.01,2.34"/>
  <polygon fill="#818181" stroke="#818181" stroke-width=".06" stroke-linejoin="round" points="4.9,2.51 5.11,2.39 5.23,2.44 5.31,2.58 5.24,2.71"/>
  <polygon fill="#454545" stroke="#454545" stroke-width=".06" stroke-linejoin="round" points="4.95,3.15 4.9,3.18 4.9,2.98 4.97,3.06"/>
  <polygon fill="#454545" stroke="#454545" stroke-width=".06" stroke-linejoin="round" points="4.9,3.15 4.64,3 4.64,2.26 4.9,2.41"/>
  <polygon fill="#818181" stroke="#818181" stroke-width=".06" stroke-linejoin="round" points="4.54,2.48 4.56,2.44 4.73,2.37"/>
  <polygon fill="#454545" stroke="#454545" stroke-width=".06" stroke-linejoin="round" points="4.87,3.13 4.84,3.15 4.68,2.31 4.81,2.57"/>
  <polygon fill="#454545" stroke="#454545" stroke-width=".06" stroke-linejoin="round" points="4.78,3.18 4.52,3.03 4.46,2.91 4.56,2.75"/>
  <polygon fill="#747474" stroke="#747474" stroke-width=".06" stroke-linejoin="round" points="4.39,3.02 4.48,2.88 4.56,3.03 4.54,3.07"/>
  <polygon fill="#848484" stroke="#848484" stroke-width=".06" stroke-linejoin="round" points="4.54,3.07 4.56,3.03 4.64,3.06 4.63,3.13"/>
  <polygon fill="#474747" stroke="#474747" stroke-width=".06" stroke-linejoin="round" points="4.54,2.99 4.48,2.88 4.48,2.69"/>
  <polygon fill="#646464" stroke="#646464" stroke-width=".06" stroke-linejoin="round" points="4.64,3.06 4.56,3.03 4.56,2.79"/>
  <polygon fill="#454545" stroke="#454545" stroke-width=".06" stroke-linejoin="round" points="4.4,3.01 3.16,1.68 3.42,1.83 4.46,2.94"/>
  <polygon fill="#454545" stroke="#454545" stroke-width=".06" stroke-linejoin="round" points="4.75,3.26 4.49,3.11 4.4,3.01 4.46,2.94"/>
  <polygon fill="#747474" stroke="#747474" stroke-width=".06" stroke-linejoin="round" points="2.42,8.02 1.83,6.98 4.39,3.02 4.54,3.07"/>
  <polygon fill="#848484" stroke="#848484" stroke-width=".06" stroke-linejoin="round" points="3.95,8.67 2.42,8.02 4.54,3.07 4.63,3.13 4.49,4.99"/>
  <polygon fill="#454545" stroke="#454545" stroke-width=".06" stroke-linejoin="round" points="5.08,2.38 5.84,0.88 6.1,1.03 5.34,2.53"/>
  <polygon fill="#454545" stroke="#454545" stroke-width=".06" stroke-linejoin="round" points="6.1,0.73 6.35,0.88 6.1,1.03 5.84,0.88"/>
  <polygon fill="#454545" stroke="#454545" stroke-width=".06" stroke-linejoin="round" points="5.33,2.94 6.37,1.83 6.63,1.68 5.39,3.01"/>
  <polygon fill="#454545" stroke="#454545" stroke-width=".06" stroke-linejoin="round" points="5.04,3.26 4.78,3.11 5.13,2.73 5.16,3.13"/>
  <polygon fill="#757575" stroke="#757575" stroke-width=".06" stroke-linejoin="round" points="5.04,3.2 5.02,3.11 5.23,3.03 5.25,3.07"/>
  <polygon fill="#454545" stroke="#454545" stroke-width=".06" stroke-linejoin="round" points="4.84,3.15 4.78,3.18 3.7,1.03 3.96,0.88 4.68,2.31"/>
  <polygon fill="#474747" stroke="#474747" stroke-width=".06" stroke-linejoin="round" points="4.56,3.03 4.54,2.99 4.48,2.69 4.48,2.58 4.55,2.71 4.56,2.79"/>
  <polygon fill="#818181" stroke="#818181" stroke-width=".06" stroke-linejoin="round" points="4.55,2.71 4.48,2.58 4.54,2.48 4.73,2.37 4.77,2.36 5.02,2.36 5.11,2.39"/>
  <polygon fill="#454545" stroke="#454545" stroke-width=".06" stroke-linejoin="round" points="4.9,3.18 4.75,3.26 3.42,1.83 3.68,1.68 4.9,2.98"/>
  <polygon fill="#848484" stroke="#848484" stroke-width=".06" stroke-linejoin="round" points="4.75,3.2 4.49,4.99 4.63,3.13"/>
  <polygon fill="#848484" stroke="#848484" stroke-width=".06" stroke-linejoin="round" points="4.64,3.06 4.77,3.11 4.75,3.2 4.63,3.13"/>
  <polygon fill="#848484" stroke="#848484" stroke-width=".06" stroke-linejoin="round" points="5.84,8.67 4.39,8.67 4.49,4.99 4.77,3.11 5.02,3.11"/>
  <polygon fill="#646464" stroke="#646464" stroke-width=".06" stroke-linejoin="round" points="4.77,3.11 4.64,3.06 4.56,2.79 4.56,2.73 4.77,2.81"/>
  <polygon fill="#646464" stroke="#646464" stroke-width=".06" stroke-linejoin="round" points="5.02,3.11 4.77,3.11 4.77,2.81 5.02,2.81"/>
  <polygon fill="#454545" stroke="#454545" stroke-width=".06" stroke-linejoin="round" points="4.9,2.41 4.9,0.7 5.16,0.55 5.16,0.99 5.01,2.34"/>
  <polygon fill="#454545" stroke="#454545" stroke-width=".06" stroke-linejoin="round" points="4.64,2.26 4.64,0.55 4.9,0.7 4.9,2.41"/>
  <polygon fill="#454545" stroke="#454545" stroke-width=".06" stroke-linejoin="round" points="5.3,3.11 5.04,3.26 5.33,2.94 5.39,3.01"/>
  <polygon fill="#4c4c4c" stroke="#4c4c4c" stroke-width=".06" stroke-linejoin="round" points="7.96,6.98 7.37,8.02 5.25,3.07 5.4,3.02"/>
  <polygon fill="#757575" stroke="#757575" stroke-width=".06" stroke-linejoin="round" points="7.37,8.02 5.84,8.67 5.04,3.2 5.25,3.07"/>
  <polygon fill="#454545" stroke="#454545" stroke-width=".06" stroke-linejoin="round" points="5.13,2.73 6.11,1.68 6.37,1.83 5.16,3.13"/>
  <polygon fill="#818181" stroke="#818181" stroke-width=".06" stroke-linejoin="round" points="5.02,2.81 4.77,2.81 4.56,2.73 4.55,2.71 4.9,2.51 5.24,2.71 5.23,2.73"/>
  <polygon fill="#484848" stroke="#484848" stroke-width=".06" stroke-linejoin="round" points="5.15,3.06 5.02,3.11 5.02,2.81 5.23,2.73 5.23,2.79"/>
  <polygon fill="#454545" stroke="#454545" stroke-width=".06" stroke-linejoin="round" points="6.37,1.53 6.63,1.68 6.37,1.83 6.11,1.68"/>
  <polygon fill="#262626" stroke="#262626" stroke-width=".06" stroke-linejoin="round" points="5.63,8.65 4.16,8.65 4.28,7.05 4.9,6.17 5.51,7.05"/>
</svg>
